# xmcd
# 
# Track frame offsets:
#     150
#     15512
#     19370
#     40007
#     51915
#     61852
#     68820
#     87042
#     104552
# 
# Disc length: 1636
# 
# Revision: 0
# Processed by: cddbd v1.5.2PL0 Copyright (c) Steve Scherf et al.
# Submitted via: BonkEnc v1.0.8
# 
DISCID=6d066209
DTITLE=Frank Morey - BourbonSoakedHalo
DYEAR=1998
DGENRE=Blues
TTITLE0=Mill Town Moon
TTITLE1=Damn Good Question
TTITLE2=Ode to Tom
TTITLE3=Last Man on Earth
TTITLE4=Bourbon Soaked Halo
TTITLE5=Willow
TTITLE6=It All Comes Around
TTITLE7=Suburban Dreams
TTITLE8=Melancholy Years
EXTD=
EXTT0=
EXTT1=
EXTT2=
EXTT3=
EXTT4=
EXTT5=
EXTT6=
EXTT7=
EXTT8=
PLAYORDER=
